<?xml version="1.0" encoding="iso-8859-1"?>
<!-- Generator: Adobe Illustrator 19.0.0, SVG Export Plug-In . SVG Version: 6.00 Build 0)  -->
<svg version="1.1" id="Capa_1" xmlns="http://www.w3.org/2000/svg" xmlns:xlink="http://www.w3.org/1999/xlink" x="0px" y="0px"
	 viewBox="0 0 512 512" style="enable-background:new 0 0 512 512;" xml:space="preserve">
<path style="fill:#5A5A5A;" d="M256,0C115.3,0,0,115.3,0,256s115.3,256,256,256s256-115.3,256-256S396.7,0,256,0z"/>
<path style="fill:#444444;" d="M512,256c0,140.7-115.3,256-256,256V0C396.7,0,512,115.3,512,256z"/>
<path style="fill:#F40000;" d="M271,166v60c0,8.401-6.599,15-15,15s-15-6.599-15-15v-60c0-8.401,6.599-15,15-15S271,157.599,271,166
	z"/>
<path style="fill:#E10000;" d="M271,166v60c0,8.401-6.599,15-15,15v-90C264.401,151,271,157.599,271,166z"/>
<circle style="fill:#6E6E6E;" cx="166" cy="316" r="15"/>
<circle style="fill:#5A5A5A;" cx="346" cy="316" r="15"/>
<path style="fill:#FF3636;" d="M256,211c-24.901,0-45,20.099-45,45s20.099,45,45,45s45-20.099,45-45S280.901,211,256,211z"/>
<g>
	<path style="fill:#FF9F00;" d="M271,76v30c0,8.401-6.599,15-15,15s-15-6.599-15-15V76c0-8.401,6.599-15,15-15S271,67.599,271,76z"
		/>
	<path style="fill:#FF9F00;" d="M106,271H76c-8.291,0-15-6.709-15-15s6.709-15,15-15h30c8.291,0,15,6.709,15,15
		C121,264.291,114.291,271,106,271z"/>
</g>
<g>
	<path style="fill:#FF7816;" d="M436,271h-30c-8.291,0-15-6.709-15-15s6.709-15,15-15h30c8.291,0,15,6.709,15,15
		C451,264.291,444.291,271,436,271z"/>
	<path style="fill:#FF7816;" d="M351.464,139.325l21.211-21.211c5.859-5.859,15.352-5.859,21.211,0s5.859,15.352,0,21.211
		l-21.211,21.211C358.839,174.372,337.251,153.538,351.464,139.325z"/>
</g>
<path style="fill:#FF9F00;" d="M139.325,160.536l-21.211-21.211c-5.859-5.859-5.859-15.352,0-21.211s15.352-5.859,21.211,0
	l21.211,21.211c5.859,5.859,5.859,15.352,0,21.211C154.677,166.395,145.185,166.396,139.325,160.536z"/>
<path style="fill:#D3D3D8;" d="M316,331H196c-8.401,0-15,6.599-15,15v60c0,8.401,6.599,15,15,15h120c8.401,0,15-6.599,15-15v-60
	C331,337.599,324.401,331,316,331z"/>
<path style="fill:#F40000;" d="M256,301v-90c24.901,0,45,20.099,45,45S280.901,301,256,301z"/>
<path style="fill:#FF7816;" d="M256,121V61c8.401,0,15,6.599,15,15v30C271,114.401,264.401,121,256,121z"/>
<path style="fill:#BABAC0;" d="M331,346v60c0,8.401-6.599,15-15,15h-60v-90h60C324.401,331,331,337.599,331,346z"/>
<path style="fill:#FF9F00;" d="M451,256c0,55.201-23.699,108.3-65.099,145.201c-6,5.4-15.601,5.099-21-1.201
	c-5.7-6-5.099-15.599,1.199-21c34.801-31.5,54.9-76.2,54.9-123c0-90.901-74.099-165-165-165S91,165.099,91,256
	c0,46.8,20.099,91.5,54.901,122.999c6.299,5.402,6.899,15,1.199,21c-5.4,6.301-15,6.901-21,1.201C84.699,364.3,61,311.201,61,256
	c0-107.401,87.599-195,195-195S451,148.599,451,256z"/>
<path style="fill:#FF7816;" d="M451,256c0,55.201-23.699,108.3-65.099,145.201c-6,5.4-15.601,5.099-21-1.201
	c-5.7-6-5.099-15.599,1.199-21c34.801-31.5,54.9-76.2,54.9-123c0-90.901-74.099-165-165-165V61C363.401,61,451,148.599,451,256z"/>
<g>
</g>
<g>
</g>
<g>
</g>
<g>
</g>
<g>
</g>
<g>
</g>
<g>
</g>
<g>
</g>
<g>
</g>
<g>
</g>
<g>
</g>
<g>
</g>
<g>
</g>
<g>
</g>
<g>
</g>
</svg>
