<svg height="512" viewBox="0 0 26 58" width="512" xmlns="http://www.w3.org/2000/svg"><g id="Page-1" fill="none" fill-rule="evenodd"><g id="030---Pipe-Flow" fill-rule="nonzero"><path id="Shape" d="m24 4v-3c0-.55228475-.4477153-1-1-1h-20c-.55228475 0-1 .44771525-1 1v3c-1.10320187.0032948-1.9967052.89679813-2 2v2c.0032948 1.10320187.89679813 1.9967052 2 2v47c0 .5522847.44771525 1 1 1h20c.5522847 0 1-.4477153 1-1v-47c1.1032019-.0032948 1.9967052-.89679813 2-2v-2c-.0032948-1.10320187-.8967981-1.9967052-2-2z" fill="#26b99a"/><rect id="Rectangle-path" fill="#2980ba" height="6" rx="2" width="26" y="4"/><path id="Shape" d="m24 1v3h-22v-3c0-.55228475.44771525-1 1-1h20c.5522847 0 1 .44771525 1 1z" fill="#3b97d3"/><path id="Shape" d="m24 10v23c-7 0-7-3-14-3-2.79895476-.0735189-5.56493115.6179752-8 2v-22z" fill="#35495e"/><g fill="#e64c3c"><path id="Shape" d="m13 27c-.5522847 0-1-.4477153-1-1v-10c0-.5522847.4477153-1 1-1s1 .4477153 1 1v10c0 .5522847-.4477153 1-1 1z"/><path id="Shape" d="m16 19c-.3147573 0-.6111456-.1481942-.8-.4l-2.2-2.933-2.2 2.933c-.2143594.2858125-.5649147.4355547-.91961524.3928203s-.65965882-.2714531-.8-.6c-.14034119-.3285469-.09474411-.7070078.11961524-.9928203l3-4c.1967934-.2391708.4902738-.3777478.8-.3777478s.6032066.138577.8.3777478l3 4c.2272632.3030176.2638192.7084296.0944272 1.0472136s-.5156551.5527864-.8944272.5527864z"/></g></g></g></svg>