<svg height="512" viewBox="0 0 64 64" width="512" xmlns="http://www.w3.org/2000/svg"><g id="Twotone"><g id="Color_copy" data-name="Color copy"><g><path d="m45.278 43-1.278-23h-6l-1.278 23z" fill="#cff09e"/><path d="m57.278 43-1.278-23h-6l-1.278 23z" fill="#cff09e"/><path d="m36.944 39h8.112l-.223-4h-7.666z" fill="#79bd9a"/><path d="m44.389 27h-6.778l-.222 4h7.222z" fill="#79bd9a"/><path d="m48.944 39h8.112l-.223-4h-7.666z" fill="#79bd9a"/><path d="m56.389 27h-6.778l-.222 4h7.222z" fill="#79bd9a"/><path d="m58 13a2.976 2.976 0 0 1 -1.154-.232 1.993 1.993 0 0 1 -3.819-.505 2 2 0 1 0 2.819 2.505 2.985 2.985 0 0 0 4.13-2.526 2.98 2.98 0 0 1 -1.976.758z" fill="#cff09e"/><path d="m46 13a2.976 2.976 0 0 1 -1.154-.232 1.993 1.993 0 0 1 -3.819-.505 2 2 0 1 0 2.819 2.505 2.985 2.985 0 0 0 4.13-2.526 2.98 2.98 0 0 1 -1.976.758z" fill="#cff09e"/><path d="m61 47v-4h-29l-7 5v13h36v-8h-6v-6zm-20 6h-6v-6h6zm10 0h-6v-6h6z" fill="#a8dba8"/><g fill="#cff09e"><path d="m61 53h-6v-6z"/><path d="m51 53h-6v-6z"/><path d="m41 53h-6v-6z"/><path d="m25 55h4v6h-4z"/></g><path d="m37 57h24a0 0 0 0 1 0 0v4a0 0 0 0 1 0 0h-28a0 0 0 0 1 0 0 4 4 0 0 1 4-4z" fill="#79bd9a"/></g></g><g id="Stroke_close_copy" data-name="Stroke close copy"><g fill="#3b8686"><path d="m61 42h-2.777l-.17-3.053-.2-3.666-.241-4.332-.185-3.333-.427-7.672a1 1 0 0 0 -1-.944h-6a1 1 0 0 0 -1 .944l-.426 7.667-.185 3.333-.241 4.332-.2 3.666-.171 3.058h-1.554l-.17-3.053-.2-3.666-.241-4.332-.185-3.333-.427-7.672a1 1 0 0 0 -1-.944h-6a1 1 0 0 0 -1 .944l-.426 7.667-.185 3.333-.241 4.332-.2 3.666-.171 3.058h-3.777a18.548 18.548 0 0 1 -14.1-6.482l-.142-.167-.009.007a.989.989 0 0 0 -.749-.358h-12a1 1 0 0 0 0 2h1.28l1.333 4h-4.613a1 1 0 0 0 -.658 1.753l3.978 3.48-2.307 14.611a1 1 0 0 0 1.694.863l5.293-5.293 5.293 5.293a1 1 0 0 0 1.694-.863l-2.307-14.611 2.66-2.327a6.871 6.871 0 0 0 5.66 5.016v12.078a1 1 0 0 0 1 1h36a1 1 0 0 0 1-1v-18a1 1 0 0 0 -1-1zm-10.887-6h5.774l.113 2h-6zm.111-2 .111-2h5.33l.111 2zm5.33-4h-5.108l.112-2h4.884zm-.5-9 .278 5h-4.664l.278-5zm-5.164 19h6.22l.111 2h-6.442zm-11.777-4h5.774l.113 2h-6zm.111-2 .111-2h5.33l.111 2zm5.33-4h-5.108l.112-2h4.884zm-.5-9 .278 5h-4.664l.278-5zm-5.164 19h6.22l.111 2h-6.442zm-26.89 13.75-2.333-1.75 2.333-1.75 2.333 1.75zm0-6.079-2.533-2.216.387-2.455h4.292l.387 2.455zm2.612-10.671-1.333 4h-2.558l-1.333-4zm-7.951 6h1.169l-.142.9zm3.752 5.94-1.7 1.274.387-2.424zm-2.2 4.468 2.267 1.7-3.01 3.01zm5.311 1.7 2.267-1.7.743 4.71zm1.762-4.894-1.7-1.274 1.314-1.15zm1.026-6.314-.142-.9h1.169zm4.852-.995-.178-1.068h-.01a.957.957 0 0 0 -.039-.19 1 1 0 0 0 -.937-.647h-4.613l1.333-4h.829a20.533 20.533 0 0 0 12.615 6.8l-4.448 3.178a4.875 4.875 0 0 1 -4.552-4.078zm5.836 17.095v-4h2v4zm4 0v-5a1 1 0 0 0 -1-1h-3v-5.485l6.32-4.515h27.68v2h-5a1 1 0 0 0 -1 1v6a1 1 0 0 0 1 1h5v6zm30-8h-4v-4h4z"/><path d="m35 54h6a1 1 0 0 0 1-1v-6a1 1 0 0 0 -1-1h-6a1 1 0 0 0 -1 1v6a1 1 0 0 0 1 1zm1-6h4v4h-4z"/><path d="m45 54h6a1 1 0 0 0 1-1v-6a1 1 0 0 0 -1-1h-6a1 1 0 0 0 -1 1v6a1 1 0 0 0 1 1zm1-6h4v4h-4z"/><path d="m9 28h2.132l-.964 1.445a1 1 0 0 0 1.664 1.11l2-3a1 1 0 0 0 -.832-1.555h-2.132l.964-1.445a1 1 0 0 0 -1.664-1.11l-2 3a1 1 0 0 0 .832 1.555z"/><path d="m54 17a3 3 0 0 0 2.292-1.062 4.069 4.069 0 0 0 .708.062 4 4 0 1 0 -3.907-4.86 3 3 0 0 0 .907 5.86zm0-4a1 1 0 0 0 1-1 2 2 0 1 1 1.231 1.846 1 1 0 0 0 -1.308.539 1 1 0 1 1 -.923-1.385z"/><path d="m42 17a3 3 0 0 0 2.292-1.062 4.069 4.069 0 0 0 .708.062 4 4 0 1 0 -3.907-4.86 3 3 0 0 0 .907 5.86zm0-4a1 1 0 0 0 1-1 2 2 0 1 1 1.231 1.846 1 1 0 0 0 -1.308.539 1 1 0 1 1 -.923-1.385z"/><path d="m57 56h-22a1 1 0 0 0 0 2h22a1 1 0 0 0 0-2z"/></g></g></g></svg>