<svg height="512" viewBox="0 0 64 64" width="512" xmlns="http://www.w3.org/2000/svg"><g id="Electric_Loop" data-name="Electric Loop"><path d="m59.49 10.17-2.83 2.83a4 4 0 0 1 -5.66-5.66l2.83-2.83z" fill="#ffdaaa"/><path d="m56.61 50.95a4 4 0 0 1 -5.66 5.66l-2.83-2.83 5.66-5.66z" fill="#ffdaaa"/><path d="m44 28-12 24v-16h-12l12-24v16z" fill="#ffde55"/><path d="m15.88 10.22-5.66 5.66-2.83-2.83a4 4 0 0 1 5.66-5.66z" fill="#ffdaaa"/><path d="m4.51 53.83 2.83-2.83a4 4 0 0 1 5.66 5.66l-2.83 2.83z" fill="#ffdaaa"/><path d="m17.29 15.88 1.42-1.42-2.83-2.82.71-.71a1.033 1.033 0 0 0 .29-.71 1.052 1.052 0 0 0 -.29-.71l-2.83-2.82a5.006 5.006 0 0 0 -6.29-.64l-4.37-4.36-1.41 1.41 4.36 4.36a5.019 5.019 0 0 0 .64 6.3l2.82 2.83a1.052 1.052 0 0 0 .71.29 1.033 1.033 0 0 0 .71-.29l.71-.71 2.82 2.83 1.42-1.42-2.83-2.83 1.41-1.41zm-7.07-1.42-2.12-2.12a3 3 0 1 1 4.24-4.24l2.12 2.12z"/><path d="m59.49 8.76 2.82-2.83-1.41-1.42-2.83 2.83-1.41-1.41 2.83-2.83-1.42-1.41-2.83 2.82-.7-.7a1.008 1.008 0 0 0 -1.42 0l-2.83 2.83a5 5 0 0 0 -.63 6.29l-4.37 4.36 1.42 1.42 4.36-4.37a5 5 0 0 0 6.29-.63l2.83-2.83a1.008 1.008 0 0 0 0-1.42zm-3.54 3.53a3 3 0 1 1 -4.24-4.24l2.12-2.12 4.24 4.24z"/><path d="m57.95 56.54a5.019 5.019 0 0 0 -.64-6.3l-2.82-2.83a1.052 1.052 0 0 0 -.71-.29 1.033 1.033 0 0 0 -.71.29l-.71.71-2.82-2.83-1.42 1.42 2.83 2.83-1.41 1.41-2.83-2.83-1.42 1.42 2.83 2.82-.71.71a1.033 1.033 0 0 0 -.29.71 1.052 1.052 0 0 0 .29.71l2.83 2.82a4.986 4.986 0 0 0 6.29.64l4.37 4.36 1.41-1.41zm-2.05-.64a3 3 0 0 1 -4.24 0l-2.12-2.12 4.24-4.24 2.12 2.12a3 3 0 0 1 0 4.24z"/><path d="m18.71 46.71-1.42-1.42-4.36 4.37a5 5 0 0 0 -6.29.63l-2.83 2.83a1.008 1.008 0 0 0 0 1.42l.7.7-2.82 2.83 1.41 1.42 2.83-2.83 1.41 1.41-2.83 2.83 1.42 1.41 2.83-2.82.7.7a1.01 1.01 0 0 0 .71.3.992.992 0 0 0 .71-.3l2.83-2.83a5 5 0 0 0 .63-6.29zm-6.42 9.24-2.12 2.12-4.24-4.24 2.12-2.12a3 3 0 1 1 4.24 4.24z"/><path d="m44.85 27.47a1 1 0 0 0 -.85-.47h-11v-15a1 1 0 0 0 -.77-.97.984.984 0 0 0 -1.12.52l-12 24a1 1 0 0 0 .89 1.45h11v15a1 1 0 0 0 .77.97.908.908 0 0 0 .23.03 1 1 0 0 0 .89-.55l12-24a1.007 1.007 0 0 0 -.04-.98zm-11.85 20.29v-11.76a1 1 0 0 0 -1-1h-10.38l9.38-18.76v11.76a1 1 0 0 0 1 1h10.38z"/></g></svg>