<?xml version="1.0"?>
<svg xmlns="http://www.w3.org/2000/svg" id="Layer_1" data-name="Layer 1" viewBox="0 0 128 128" width="512" height="512"><title>PLUMBING</title><path d="M115,57.75H104.25V40.25H115a1.75,1.75,0,0,0,0-3.5H104.25v-2.7a1.75,1.75,0,0,0-1.75-1.75H96a1.75,1.75,0,0,0-1.75,1.75v2.7h-.423a3,3,0,0,1-2.994-2.994V13a1.75,1.75,0,0,0-3.5,0V33.756a6.5,6.5,0,0,0,6.494,6.494h.423v17.5H78.682a1.751,1.751,0,0,0-1.553.942,14.771,14.771,0,0,1-3.74,4.624,1.751,1.751,0,0,0-.639,1.352V79.833H55.25V64.668a1.751,1.751,0,0,0-.639-1.352,14.779,14.779,0,0,1-3.741-4.625,1.751,1.751,0,0,0-1.552-.942H33.75V40.25H54.278a1.748,1.748,0,0,0,1.03-.335,14.716,14.716,0,0,1,17.384,0,1.75,1.75,0,0,0,1.03.335H74.8A6.5,6.5,0,0,0,81.3,33.756V13a1.75,1.75,0,0,0-3.5,0V33.756A3,3,0,0,1,74.8,36.75h-.524a18.212,18.212,0,0,0-20.554,0H33.75v-2.7A1.75,1.75,0,0,0,32,32.3H25.5a1.75,1.75,0,0,0-1.75,1.75v2.7H13a1.75,1.75,0,0,0,0,3.5H23.75v17.5H13a1.75,1.75,0,0,0,0,3.5H23.75V64a1.75,1.75,0,0,0,1.75,1.75H32A1.75,1.75,0,0,0,33.75,64V61.25H48.291a18.213,18.213,0,0,0,3.459,4.22V79.833H49.027a1.75,1.75,0,0,0-1.75,1.75v6.5a1.75,1.75,0,0,0,1.75,1.75H51.75v2.9a3,3,0,0,1-2.994,2.994H13a1.75,1.75,0,0,0,0,3.5H48.756a6.5,6.5,0,0,0,6.494-6.494v-2.9h17.5V115a1.75,1.75,0,0,0,3.5,0V89.833h2.723a1.75,1.75,0,0,0,1.75-1.75v-6.5a1.75,1.75,0,0,0-1.75-1.75H76.25V65.47a18.209,18.209,0,0,0,3.459-4.22H94.25V64A1.75,1.75,0,0,0,96,65.75h6.5A1.75,1.75,0,0,0,104.25,64V61.25H115a1.75,1.75,0,0,0,0-3.5Zm-84.75,4.5h-3V35.8h3ZM77.223,86.333H50.777v-3H77.223ZM100.75,62.25h-3V35.8h3Z"/><path d="M48.756,105.269H13a1.75,1.75,0,0,0,0,3.5H48.756a3,3,0,0,1,2.994,2.994V115a1.75,1.75,0,0,0,3.5,0v-3.237A6.5,6.5,0,0,0,48.756,105.269Z"/><path d="M64,40.5A11.375,11.375,0,1,0,75.375,51.875,11.388,11.388,0,0,0,64,40.5Zm0,19.25a7.875,7.875,0,1,1,7.875-7.875A7.884,7.884,0,0,1,64,59.75Z"/><path d="M64,46.375a1.75,1.75,0,0,0-1.75,1.75v3.75a1.75,1.75,0,0,0,3.5,0v-3.75A1.75,1.75,0,0,0,64,46.375Z"/></svg>
