<svg height="512pt" viewBox="0 -31 512.00002 512" width="512pt" xmlns="http://www.w3.org/2000/svg"><path d="m379.585938 256h97.105468v105.929688h-97.105468zm0 0" fill="#c0ab91"/><path d="m35.308594 256h97.105468v105.929688h-97.105468zm0 0" fill="#c0ab91"/><path d="m494.34375 220.691406c-9.75 0-17.652344 7.902344-17.652344 17.652344v141.242188c0 9.75 7.902344 17.65625 17.652344 17.65625 9.753906 0 17.65625-7.90625 17.65625-17.65625v-141.242188c0-9.75-7.902344-17.652344-17.65625-17.652344zm0 0" fill="#57565c"/><path d="m17.65625 397.242188c9.75 0 17.652344-7.90625 17.652344-17.65625v-141.242188c0-9.75-7.902344-17.652344-17.652344-17.652344-9.753906 0-17.65625 7.902344-17.65625 17.652344v141.242188c0 9.75 7.902344 17.65625 17.65625 17.65625zm0 0" fill="#57565c"/><path d="m397.242188 35.308594c9.75 0 17.65625-7.902344 17.65625-17.652344 0-9.753906-7.90625-17.65625-17.65625-17.65625h-282.484376c-9.75 0-17.65625 7.902344-17.65625 17.65625 0 9.75 7.90625 17.652344 17.65625 17.652344zm0 0" fill="#ab2300"/><path d="m256 105.929688h-52.964844v72.160156c16.820313-6.839844 34.804688-10.363282 52.964844-10.367188zm0 0" fill="#c0ab91"/><path d="m256 167.722656c18.160156.003906 36.144531 3.523438 52.964844 10.367188v-72.160156h-52.964844zm0 0" fill="#cdbca7"/><path d="m308.964844 178.089844c-16.820313-6.839844-34.804688-10.363282-52.964844-10.367188v61.792969c43.878906 0 79.449219 35.570313 79.449219 79.449219s-35.570313 79.449218-79.449219 79.449218v61.792969c78.003906-.078125 141.179688-63.375 141.101562-141.378906-.054687-57.449219-34.902343-109.140625-88.136718-130.738281zm0 0" fill="#cae2ff"/><path d="m203.035156 178.089844c-72.28125 29.328125-107.101562 111.699218-77.773437 183.980468 21.597656 53.234376 73.289062 88.082032 130.738281 88.136719v-61.792969c-43.878906 0-79.449219-35.570312-79.449219-79.449218s35.570313-79.449219 79.449219-79.449219v-61.792969c-18.160156.003906-36.144531 3.523438-52.964844 10.367188zm0 0" fill="#bddbff"/><path d="m176.550781 308.964844c0 43.878906 35.570313 79.449218 79.449219 79.449218v-158.898437c-43.878906 0-79.449219 35.570313-79.449219 79.449219zm0 0" fill="#898890"/><path d="m335.449219 308.964844c0-43.878906-35.570313-79.449219-79.449219-79.449219v158.898437c43.878906 0 79.449219-35.570312 79.449219-79.449218zm0 0" fill="#a1a0a6"/><path d="m256 35.308594h26.484375v70.621094h-26.484375zm0 0" fill="#99856d"/><path d="m229.515625 35.308594h26.484375v70.621094h-26.484375zm0 0" fill="#806749"/><g fill="#898890"><path d="m256 211.863281c-4.875 0-8.828125-3.953125-8.828125-8.828125v-8.828125c0-4.875 3.953125-8.828125 8.828125-8.828125s8.828125 3.953125 8.828125 8.828125v8.828125c0 4.875-3.953125 8.828125-8.828125 8.828125zm0 0"/><path d="m330.902344 242.890625c-4.875 0-8.828125-3.953125-8.824219-8.828125 0-2.339844.929687-4.585938 2.582031-6.238281l6.242188-6.242188c3.445312-3.449219 9.035156-3.453125 12.484375-.003906 3.449219 3.445313 3.453125 9.035156.003906 12.484375l-6.238281 6.242188c-1.65625 1.65625-3.90625 2.589843-6.25 2.585937zm0 0"/><path d="m370.757812 317.792969h-8.828124c-4.875 0-8.828126-3.953125-8.828126-8.828125s3.953126-8.828125 8.828126-8.828125h8.828124c4.875 0 8.828126 3.953125 8.828126 8.828125s-3.953126 8.828125-8.828126 8.828125zm0 0"/><path d="m337.144531 398.9375c-2.34375-.003906-4.585937-.933594-6.242187-2.589844l-6.242188-6.238281c-3.386718-3.507813-3.289062-9.097656.21875-12.484375 3.417969-3.304688 8.84375-3.304688 12.265625 0l6.238281 6.242188c3.449219 3.449218 3.449219 9.035156 0 12.484374-1.65625 1.65625-3.898437 2.585938-6.238281 2.585938zm0 0"/><path d="m256 432.550781c-4.875 0-8.828125-3.953125-8.828125-8.828125v-8.824218c0-4.878907 3.953125-8.828126 8.828125-8.828126s8.828125 3.949219 8.828125 8.828126v8.824218c0 4.875-3.953125 8.828125-8.828125 8.828125zm0 0"/><path d="m174.855469 398.9375c-4.875-.003906-8.824219-3.957031-8.824219-8.832031 0-2.339844.929688-4.582031 2.585938-6.238281l6.238281-6.242188c3.507812-3.386719 9.097656-3.289062 12.484375.21875 3.304687 3.421875 3.304687 8.84375 0 12.265625l-6.242188 6.238281c-1.65625 1.65625-3.898437 2.589844-6.242187 2.589844zm0 0"/><path d="m150.070312 317.792969h-8.828124c-4.875 0-8.828126-3.953125-8.828126-8.828125s3.953126-8.828125 8.828126-8.828125h8.828124c4.875 0 8.828126 3.953125 8.828126 8.828125s-3.953126 8.828125-8.828126 8.828125zm0 0"/><path d="m181.097656 242.890625c-2.339844 0-4.585937-.929687-6.242187-2.585937l-6.238281-6.242188c-3.449219-3.445312-3.453126-9.035156-.003907-12.484375 3.445313-3.449219 9.035157-3.453125 12.484375-.003906l6.242188 6.238281c3.445312 3.449219 3.445312 9.039062-.003906 12.484375-1.652344 1.65625-3.898438 2.585937-6.238282 2.585937zm0 0"/></g></svg>